# xmcd CD database file
#
# Track frame offsets:
#	150
#	30949
#	49946
#	80693
#	105971
#	144539
#	170811
#	198787
#
# Disc length: 3008 seconds
#
# Revision: 5
# Processed by: cddbd v1.5.2PL0 Copyright (c) Steve Scherf et al.
# Submitted via: CDex 1.70beta2
#
DISCID=610bbe08
DTITLE=Coltrane John - Coltrane's Sound
DYEAR=1960
DGENRE=Jazz
TTITLE0=The Night Has A Thousand Eyes
TTITLE1=Central Park West
TTITLE2=Liberia
TTITLE3=Body And Soul
TTITLE4=Equinox
TTITLE5=Satellite
TTITLE6=26-2
TTITLE7=Body And Soul (Alternative Take)
EXTD=YEAR: 1960
EXTT0=
EXTT1=
EXTT2=
EXTT3=
EXTT4=
EXTT5=
EXTT6=
EXTT7=
PLAYORDER=
